<svg xmlns="http://www.w3.org/2000/svg" viewBox="0 0 664.85 664.7"><defs><style>.cls-1{fill:#fff;}</style></defs><g id="Ebene_2" data-name="Ebene 2"><g id="Ebene_1-2" data-name="Ebene 1"><path class="cls-1" d="M662.51,469.4c-2.67,53.25-14.83,100.41-53.69,139.27s-86,51.17-139.27,53.69c-54.88,3.12-219.37,3.12-274.25,0C142.05,659.69,95,647.53,56,608.67S4.86,522.65,2.34,469.4C-.78,414.52-.78,250,2.34,195.15,5,141.91,17,94.74,56,55.88S142.2,4.86,195.3,2.34c54.88-3.12,219.37-3.12,274.25,0C522.79,5,570,17.17,608.82,56s51.17,86,53.69,139.27C665.63,250.18,665.63,414.52,662.51,469.4ZM605,332.35c0-48.35,4-152.18-13.34-195.93a112.2,112.2,0,0,0-63.19-63.19C484.82,56,380.85,59.88,332.5,59.88s-152.18-4-195.93,13.35a112.2,112.2,0,0,0-63.19,63.19C56.18,180,60,284,60,332.35S56,484.53,73.38,528.28a112.2,112.2,0,0,0,63.19,63.19c43.6,17.2,147.58,13.35,195.93,13.35s152.18,4,195.93-13.35a112.2,112.2,0,0,0,63.19-63.19C609,484.68,605,380.7,605,332.35Zm-102,0A170.42,170.42,0,1,1,332.5,161.93,170.15,170.15,0,0,1,502.92,332.35Zm-59.63,0a110.8,110.8,0,1,0-221.59,0c0,61.11,49.84,110.8,110.8,110.8S443.29,393.46,443.29,332.35Zm66.6-137.64A39.75,39.75,0,1,1,549.64,155,39.66,39.66,0,0,1,509.89,194.71Z"/></g></g></svg>