<svg xmlns="http://www.w3.org/2000/svg" viewBox="0 0 810.04 569.55"><defs><style>.cls-1{fill:#fff;}</style></defs><g id="Ebene_2" data-name="Ebene 2"><g id="Ebene_1-2" data-name="Ebene 1"><path class="cls-1" d="M810,285.35S810,418,793.11,481.59c-9.32,35.08-36.77,61.55-71.62,70.92-63.17,17-316.47,17-316.47,17s-253.31,0-316.48-17c-34.85-9.37-62.3-35.84-71.61-70.92C0,418,0,285.35,0,285.35S0,152.7,16.93,89.12A101.75,101.75,0,0,1,88.54,17C151.71,0,405,0,405,0s253.3,0,316.47,17a101.78,101.78,0,0,1,71.62,72.08C810,152.7,810,285.35,810,285.35Zm-276.15,0L322.17,164.91V405.79Z"/></g></g></svg>